<?xml version="1.0" encoding="UTF-8" standalone="no"?>
<!-- Created with Inkscape (http://www.inkscape.org/) -->

<svg
   xmlns:dc="http://purl.org/dc/elements/1.1/"
   xmlns:cc="http://creativecommons.org/ns#"
   xmlns:rdf="http://www.w3.org/1999/02/22-rdf-syntax-ns#"
   xmlns:svg="http://www.w3.org/2000/svg"
   xmlns="http://www.w3.org/2000/svg"
   xmlns:sodipodi="http://sodipodi.sourceforge.net/DTD/sodipodi-0.dtd"
   xmlns:inkscape="http://www.inkscape.org/namespaces/inkscape"
   width="78.866768mm"
   height="78.740295mm"
   viewBox="0 0 78.866768 78.740295"
   version="1.1"
   id="svg8"
   inkscape:version="0.92.3 (2405546, 2018-03-11)"
   sodipodi:docname="karmabee.svg">

  <defs
     id="defs2" />
  <sodipodi:namedview
     id="base"
     pagecolor="#ffffff"
     bordercolor="#666666"
     borderopacity="1.0"
     inkscape:pageopacity="0.0"
     inkscape:pageshadow="2"
     inkscape:zoom="0.98994949"
     inkscape:cx="120.44433"
     inkscape:cy="106.68263"
     inkscape:document-units="mm"
     inkscape:current-layer="layer1"
     showgrid="false"
     inkscape:window-width="1920"
     inkscape:window-height="1017"
     inkscape:window-x="-8"
     inkscape:window-y="-8"
     inkscape:window-maximized="1" />
  <metadata
     id="metadata5">
    <rdf:RDF>
      <cc:Work
         rdf:about="">
        <dc:format>image/svg+xml</dc:format>
        <dc:type
           rdf:resource="http://purl.org/dc/dcmitype/StillImage" />
        <dc:title></dc:title>
      </cc:Work>
    </rdf:RDF>
  </metadata>
  <g
     inkscape:label="Layer 1"
     inkscape:groupmode="layer"
     id="layer1"
     transform="translate(-62.815486,-89.482023)">
    <path
       style="fill:#FFF;stroke-width:0.26458335"
       d="m 99.761441,167.97455 c -5.706497,-0.32232 -9.596534,-1.32999 -14.684376,-3.80379 -4.341356,-2.11085 -7.122508,-4.10937 -10.624189,-7.63447 -4.001886,-4.02865 -6.333749,-7.46613 -8.488021,-12.51249 -2.321347,-5.43773 -3.137756,-9.45604 -3.149257,-15.50042 -0.01626,-8.54545 1.729532,-14.42604 6.390693,-21.52664 2.433599,-3.70723 7.755551,-9.108363 11.146232,-11.312063 3.868319,-2.51413 9.38277,-4.7823 13.3235,-5.48014 13.518547,-2.39393 26.374877,1.21551 35.683547,10.018233 4.02254,3.8039 8.37965,10.50874 10.22307,15.73153 1.48011,4.19348 1.92291,6.7794 2.05265,11.98735 0.11041,4.43225 0.0659,5.06218 -0.57384,8.11384 -0.80829,3.85589 -1.5086,5.82428 -3.443,9.67741 -1.45263,2.8935 -2.98914,5.36366 -4.62392,7.43363 -1.53809,1.94755 -5.09101,5.52798 -6.51017,6.56059 -0.72761,0.52942 -1.38245,1.03743 -1.45521,1.12891 -0.0728,0.0915 -1.35655,0.88754 -2.85288,1.76902 -3.08563,1.81774 -7.109,3.49521 -10.28715,4.28904 -1.7366,0.43376 -8.94473,1.46995 -8.95106,1.28674 -7.9e-4,-0.0258 -1.43037,-0.12765 -3.176619,-0.22628 z m -0.531591,-3.1002 c 0.08926,-0.69123 0.203856,-1.46279 0.254661,-1.71458 0.0674,-0.33379 -0.169306,-0.53048 -0.873685,-0.72612 -0.531329,-0.14759 -1.216205,-0.269 -1.52195,-0.26981 -0.823039,-0.002 -5.721049,-1.25054 -7.176903,-1.82917 -3.118874,-1.23962 -6.816132,-3.20996 -8.57715,-4.57095 -0.530264,-0.4098 -1.054568,-0.7451 -1.165122,-0.7451 -0.231475,0 -2.240415,2.12679 -2.228403,2.35912 0.01502,0.29051 4.883982,3.41471 7.158276,4.59315 3.549202,1.83904 9.407606,3.59742 13.785759,4.13774 0.100225,0.0123 0.255257,-0.54306 0.344517,-1.23428 z m -2.840247,-0.94348 c -0.53994,-0.40645 -1.285824,-0.58643 -2.910416,-0.70225 -2.197442,-0.15665 -2.839728,-0.37853 -4.302253,-1.48622 -1.037333,-0.78566 -2.104307,-1.18987 -3.564714,-1.35047 -0.651551,-0.0717 -1.52606,-0.30683 -1.943354,-0.52262 -1.033547,-0.53447 -3.883468,-2.76618 -3.883468,-3.04107 0,-0.46735 0.798774,-0.18735 1.930964,0.67687 1.668549,1.27363 2.111742,1.47595 4.463833,2.03773 2.190014,0.52307 3.008537,0.87089 4.615032,1.96109 0.719468,0.48824 1.319771,0.65882 2.322406,0.65991 2.433342,0.003 4.327933,0.89732 4.08731,1.9301 -0.072,0.30903 -0.230251,0.27737 -0.81534,-0.16307 z m 12.499957,1.62408 c 2.73252,-0.50744 7.12353,-2.08899 10.37655,-3.73741 2.9759,-1.50801 7.53607,-4.34628 8.12697,-5.05826 0.16129,-0.19435 -0.13129,-0.72282 -0.8614,-1.55587 l -1.10566,-1.26156 -2.96792,1.99126 c -4.29852,2.884 -8.2538,4.70969 -11.98104,5.53024 -1.67349,0.36842 -3.45942,0.70618 -3.96875,0.75058 l -0.92604,0.0807 -0.0804,1.55787 c -0.12921,2.50254 -0.34284,2.39519 3.38773,1.70242 z m -2.38125,-0.87458 c 0,-0.63615 2.56448,-1.76809 4.34907,-1.91965 1.14493,-0.0972 1.85565,-0.32398 2.48303,-0.79218 0.59185,-0.44168 1.42251,-0.72336 2.54289,-0.86231 1.66979,-0.20708 2.60791,-0.64355 3.87325,-1.80207 0.37429,-0.3427 1.50092,-0.89917 2.50363,-1.23661 1.17845,-0.39659 2.02532,-0.86713 2.39499,-1.33074 0.36826,-0.46185 0.6371,-0.61169 0.75506,-0.42084 0.34029,0.55062 -1.03181,1.82758 -2.89462,2.69392 -1.01865,0.47374 -2.20927,1.12934 -2.64584,1.45688 -1.26274,0.9474 -3.33955,1.87896 -4.61708,2.07098 -0.64762,0.0974 -1.32736,0.30137 -1.51053,0.45338 -0.18317,0.15202 -1.18778,0.38372 -2.23248,0.5149 -1.0447,0.13118 -2.55224,0.53736 -3.35009,0.90263 -1.70687,0.78143 -1.65128,0.77228 -1.65128,0.27171 z m -2.64758,-6.81748 c -0.001,-1.78263 0.13613,-4.13412 0.30464,-5.22552 0.26335,-1.70563 0.41967,-2.07697 1.11289,-2.64355 0.7021,-0.57384 0.78084,-0.59227 0.6082,-0.14239 -0.34718,0.90474 -0.69182,4.40084 -0.76371,7.74723 -0.0822,3.82435 -0.39775,3.61196 3.83665,2.5821 5.34249,-1.29935 10.28187,-3.6575 13.29162,-6.34565 l 1.5875,-1.41787 -0.92604,-0.97792 c -2.12942,-2.24872 -5.70442,-4.77655 -7.9375,-5.61249 -2.60647,-0.97572 -2.87434,-1.15283 -3.06026,-2.02341 -0.23252,-1.08872 -0.58126,-1.4848 -1.30733,-1.4848 -0.63383,0 -1.437,-0.96678 -1.47597,-1.77663 -0.0125,-0.25978 -0.29907,0.79511 -0.63681,2.34421 -0.95573,4.38351 -1.99369,6.24224 -4.27649,7.65814 -1.08927,0.67562 -1.41366,2.02016 -1.51041,6.26045 -0.0688,3.01342 -0.20627,3.82014 -0.5864,3.44002 -0.0845,-0.0845 -0.0528,-1.46432 0.0705,-3.06622 0.14311,-1.85896 0.13158,-2.89608 -0.0319,-2.867 -0.14085,0.0251 -0.404,-0.37115 -0.58479,-0.88047 -0.28724,-0.80927 -0.33058,-0.38385 -0.34363,3.37343 l -0.0149,4.29948 h 1.32291 1.32292 l -0.002,-3.24114 z m -3.967839,0.52916 c -8e-4,-2.30312 -0.473388,-5.84692 -1.043866,-7.8276 -0.232553,-0.80743 -0.215847,-0.85331 0.196855,-0.54069 0.248039,0.18789 0.07686,-0.0699 -0.380397,-0.57291 -1.416449,-1.55812 -2.057506,-3.06811 -2.859445,-6.73536 -0.190931,-0.87312 -0.361338,-1.37512 -0.378685,-1.11555 -0.01736,0.25956 -0.451514,0.71973 -0.964819,1.02259 -0.573577,0.33842 -1.129884,0.98222 -1.443389,1.67041 -0.414994,0.91097 -0.736267,1.20613 -1.722999,1.58297 -2.992882,1.14299 -9.910305,6.63879 -9.537573,7.57748 0.202383,0.50968 4.867917,3.27603 7.419534,4.39929 2.410624,1.06119 5.041961,1.91372 7.672916,2.48596 3.291987,0.71602 3.042838,0.87546 3.041868,-1.94659 z m -25.150893,-6.22083 1.250065,-0.99532 -1.63326,-2.46973 c -2.906489,-4.39504 -4.826013,-8.9765 -5.724716,-13.66359 -0.306923,-1.60073 -0.600938,-3.06532 -0.653365,-3.25464 -0.07228,-0.26102 -0.495804,-0.30051 -1.752094,-0.16337 -0.911225,0.0995 -1.710837,0.22905 -1.776916,0.28797 -0.06608,0.0589 0.09459,1.08494 0.35705,2.28004 0.262456,1.1951 0.585242,2.70262 0.717301,3.35004 0.667275,3.27133 3.896444,10.22718 6.362693,13.70568 0.748011,1.05503 1.41473,1.91823 1.481599,1.91823 0.06687,0 0.684108,-0.44789 1.371643,-0.99531 z m -2.465328,-1.658 c -0.775664,-0.68105 -0.961985,-1.07782 -1.242049,-2.64497 -0.276622,-1.54788 -0.512134,-2.05769 -1.467728,-3.1772 -1.032116,-1.20915 -1.492056,-2.35198 -1.380749,-3.43077 0.109162,-1.058 -0.126275,-1.65221 -1.100746,-2.77812 -0.582084,-0.67255 -1.069564,-1.30487 -1.083289,-1.40516 -0.136098,-0.99446 -0.109379,-3.27432 0.03945,-3.3663 0.360562,-0.22284 0.706963,0.54201 0.859136,1.89697 0.103055,0.91759 0.456294,1.83357 1.087819,2.82081 0.525083,0.82083 1.003546,1.96538 1.09104,2.6099 0.280353,2.06523 0.38945,2.33966 1.355031,3.40844 0.692379,0.76638 1.094754,1.58198 1.465194,2.96989 0.345108,1.293 0.762624,2.1748 1.287734,2.71971 0.427377,0.44349 0.777049,0.88998 0.777049,0.99219 0,0.43471 -0.84119,0.12802 -1.687894,-0.61539 z m 13.25597,-2.72161 c 0.433165,-0.31801 1.425262,-1.0534 2.204659,-1.63421 0.779397,-0.5808 1.660549,-1.03032 1.958113,-0.99893 0.297566,0.0314 0.3922,-0.009 0.210299,-0.0905 -0.181901,-0.0812 -0.330729,-0.27338 -0.330729,-0.42711 0,-0.15373 -0.202875,-0.42786 -0.450835,-0.60917 -0.412855,-0.30189 -0.37942,-0.41099 0.396875,-1.29515 0.608256,-0.69276 0.84771,-1.22686 0.84771,-1.89081 0,-1.22893 -0.640861,-2.70702 -1.606156,-3.70448 -0.77197,-0.79769 -0.779005,-0.83042 -0.405815,-1.88815 0.208875,-0.59201 0.563379,-1.43145 0.787791,-1.86541 l 0.408019,-0.78902 -1.097481,0.37811 c -0.603612,0.20796 -1.3751,0.30844 -1.714414,0.22327 -0.527535,-0.1324 -0.575154,-0.2329 -0.328609,-0.69358 0.158578,-0.29631 0.429092,-0.48907 0.60114,-0.42836 0.172049,0.0607 0.550941,0.0258 0.841983,-0.0775 0.291042,-0.10332 0.871649,-0.27087 1.290235,-0.37233 0.62162,-0.15067 0.732219,-0.10929 0.603618,0.22584 -0.0866,0.22568 -0.104079,0.41032 -0.03884,0.41032 0.184372,0 1.187415,-2.05399 1.190013,-2.43685 0.0013,-0.1877 0.714881,-0.80037 1.585794,-1.36148 0.870916,-0.56112 1.513694,-1.13314 1.428395,-1.27115 -0.08874,-0.14359 -0.455869,-0.0517 -0.858192,0.21481 -0.386707,0.25616 -1.47701,0.87016 -2.422895,1.36444 -0.945885,0.49428 -1.484469,0.82034 -1.196851,0.72457 0.464056,-0.15453 0.451414,-0.098 -0.112265,0.50201 -0.659109,0.70159 -2.143323,0.99231 -1.699844,0.33295 0.126959,-0.18876 0.009,-0.0995 -0.262102,0.19844 -0.271116,0.2979 -0.89323,1.33645 -1.382475,2.30789 -0.961619,1.90937 -1.43188,2.42061 -1.43188,1.55665 0,-0.40471 -0.170069,-0.54478 -0.661458,-0.54478 -0.904385,0 -0.835779,-0.25155 0.396875,-1.45521 1.250709,-1.22128 1.304835,-1.45806 0.330729,-1.44679 -0.654518,0.008 -0.681977,0.0431 -0.27336,0.35348 0.417094,0.31684 0.380458,0.41658 -0.447953,1.21951 -0.890347,0.86295 -0.913688,0.869 -1.77716,0.46004 -0.481231,-0.22792 -1.410746,-0.53395 -2.06559,-0.68006 -1.829615,-0.40825 -7.11905,-0.8956 -8.598958,-0.79228 l -1.322917,0.0924 0.08993,1.32292 c 0.199546,2.93545 1.314399,6.93168 2.537389,9.09537 0.519506,0.9191 0.944556,1.71779 0.944556,1.77488 0,0.13231 2.931885,4.92448 3.208253,5.2439 0.225524,0.26065 1.608861,-0.67898 3.235316,-2.19757 1.408889,-1.31546 3.679315,-4.41554 4.667437,-6.373 0.69259,-1.37201 1.011093,-1.71569 1.992178,-2.14967 0.642284,-0.28411 1.269748,-0.69876 1.394364,-0.92144 0.203062,-0.36285 0.26181,-0.36241 0.566121,0.004 0.285147,0.34358 0.178242,0.65359 -0.66725,1.93495 -1.689003,2.55971 -3.40139,4.55846 -6.721838,7.84594 -1.747165,1.72982 -3.176664,3.24037 -3.176664,3.35678 0,0.1164 0.438022,0.6249 0.973382,1.12998 l 0.973381,0.91833 2.300204,-2.10941 c 1.265111,-1.16017 2.65461,-2.36959 3.087775,-2.6876 z m -3.495389,0.67495 c 1.31128,-1.27132 3.394874,-3.18539 4.630209,-4.2535 1.347125,-1.16477 0.498818,-0.24165 -2.119562,2.30647 -2.401094,2.33668 -4.484688,4.25075 -4.630208,4.2535 -0.145521,0.003 0.808282,-1.03516 2.119561,-2.30647 z m 19.179399,3.55992 c 0,-0.19047 -0.17501,-0.57742 -0.38891,-0.8599 -0.35161,-0.46433 -0.35874,-0.43112 -0.0743,0.34631 0.33814,0.92415 0.4632,1.06282 0.4632,0.51359 z m 32.35511,-3.04056 c 1.9866,-3.0518 3.05162,-5.085 3.97751,-7.59334 0.98755,-2.67537 1.95043,-6.37856 2.11545,-8.13594 0.13622,-1.45061 0.1147,-1.52136 -0.46279,-1.52136 -0.50245,0 -0.58423,0.11208 -0.47991,0.65777 0.20342,1.06411 -0.14976,2.32792 -0.88829,3.17869 -0.92674,1.0676 -1.21125,1.88737 -1.14782,3.30729 0.0975,2.18226 0.0193,2.40709 -1.23996,3.56326 l -1.22488,1.12462 0.0392,1.90484 c 0.0363,1.7667 -0.0156,1.95955 -0.71528,2.65927 -0.8802,0.8802 -2.82902,1.56771 -3.25014,1.14659 -0.18842,-0.18841 0.0909,-0.4872 0.897,-0.95962 1.62044,-0.94964 2.03942,-1.68903 2.03942,-3.59899 0,-1.49396 0.0601,-1.64573 1.02476,-2.589 1.34809,-1.31816 1.56427,-1.794 1.56196,-3.43804 -0.002,-1.07625 0.19824,-1.742 0.91298,-3.04271 0.51776,-0.94224 0.97632,-2.21056 1.05636,-2.92178 0.13892,-1.23434 0.12819,-1.25677 -0.60105,-1.25677 -0.69394,0 -0.76143,0.0995 -1.03208,1.52135 -1.19924,6.3002 -3.85067,12.57435 -6.6933,15.83853 -0.47966,0.55079 -0.46932,0.57668 0.71913,1.7995 0.66318,0.68237 1.32177,1.16899 1.46352,1.08139 0.14175,-0.0876 1.00946,-1.31411 1.92825,-2.72555 z m -9.08923,-1.04435 c -2.31728,-2.38778 -4.05106,-4.43963 -6.09268,-7.21045 -2.34146,-3.17776 -2.6088,-3.60703 -2.4112,-3.87172 0.10283,-0.13772 -0.13907,0.10536 -0.53755,0.54018 -0.46591,0.50841 -0.62107,0.85452 -0.43471,0.9697 0.30982,0.19148 0.10176,1.18873 -0.37117,1.77905 -0.22534,0.28128 -0.3143,0.28128 -0.49273,0 -0.14204,-0.22392 -0.2188,-0.0673 -0.2208,0.4505 -0.003,0.87514 0.87323,2.51354 1.34484,2.51354 0.16661,0 0.23945,0.22898 0.16429,0.5164 -0.10653,0.40738 0.23608,0.75632 1.62279,1.65282 2.62431,1.6966 5.59212,3.96396 6.78511,5.18373 l 1.05814,1.08188 0.7881,-0.77727 0.7881,-0.77727 z m -4.60431,-2.0904 c -2.4692,-2.52499 -4.39455,-4.59089 -4.27855,-4.59089 0.36485,0 9.1649,8.56708 9.1649,8.92228 0,0.18598 -0.0893,0.32044 -0.19844,0.29882 -0.10914,-0.0216 -2.2187,-2.10523 -4.68791,-4.63021 z m 9.3468,0.0752 c 1.78447,-2.68887 3.28348,-6.26609 4.11964,-9.83104 0.23821,-1.01559 0.54826,-2.27707 0.68901,-2.80327 0.14074,-0.52621 0.2559,-1.27168 0.2559,-1.65661 v -0.69987 l -3.24115,0.15281 c -3.54843,0.1673 -6.37728,0.65685 -8.59901,1.48811 l -1.43798,0.53801 -0.91832,-0.88807 -0.91832,-0.88806 0.74437,-0.16714 0.74436,-0.16713 -0.85989,-0.0313 c -0.47295,-0.0172 -0.8599,0.0636 -0.8599,0.17958 0,0.11599 0.47625,0.67593 1.05833,1.24432 1.17784,1.15013 1.3383,1.59014 0.49992,1.3709 -0.40331,-0.10547 -0.5956,-0.004 -0.69231,0.36602 -0.20287,0.77576 -0.46744,0.62585 -1.14303,-0.64764 -0.58174,-1.0966 -0.65597,-1.14548 -1.36435,-0.89853 -0.97076,0.3384 -2.07553,0.0597 -2.65557,-0.66981 -0.2533,-0.3186 -0.0453,0.25417 0.46221,1.27281 0.50751,1.01865 0.92312,2.00091 0.92357,2.18281 5.3e-4,0.18191 0.10499,0.33073 0.23233,0.33073 0.12733,0 0.29919,0.33845 0.38192,0.7521 0.11938,0.59688 0.40092,0.84776 1.36422,1.21565 1.02312,0.39073 1.32098,0.67782 1.89619,1.82759 1.05642,2.11168 2.59848,4.06485 5.19482,6.57977 l 2.37995,2.30532 0.44448,-0.58553 c 0.24447,-0.32204 0.82884,-1.16468 1.29861,-1.87253 z m -24.32022,1.2969 c 0.15433,-0.0954 0.2806,-0.45844 0.2806,-0.80682 0,-0.50656 -0.1987,-0.68859 -0.99219,-0.90895 -1.2689,-0.35239 -3.5305,-0.35657 -4.446729,-0.008 -0.865119,0.32892 -1.440249,-0.049 -1.440249,-0.94629 0,-0.85909 0.622205,-0.99245 4.758828,-1.02 3.15829,-0.021 3.57832,-0.0762 3.65623,-0.48061 0.0484,-0.25126 -0.2192,-0.76406 -0.59469,-1.13955 -0.67508,-0.67508 -0.71897,-0.68135 -3.92082,-0.56037 -1.78095,0.0673 -3.595277,0.16338 -4.03184,0.21351 -0.777213,0.0893 -0.79375,0.0665 -0.79375,-1.09213 v -1.18331 l 1.190625,-0.22187 c 0.654844,-0.12204 2.887265,-0.17244 4.960935,-0.112 l 3.77031,0.10988 v -1.40929 -1.40929 l -1.49343,-0.43415 c -2.06113,-0.59919 -5.838089,-0.42223 -7.568544,0.3546 l -1.256771,0.56418 v -1.27564 c 0,-0.71541 0.149122,-1.3994 0.339551,-1.55744 0.186753,-0.15499 2.385075,-0.42961 4.885164,-0.61025 4.90749,-0.35458 5.13567,-0.44483 4.49768,-1.77878 -0.42458,-0.88775 -1.87889,-1.12346 -5.59068,-0.90613 -2.172385,0.12719 -2.594644,0.0903 -2.494002,-0.21788 0.212299,-0.6501 1.465272,-1.05313 3.782432,-1.21666 2.26108,-0.15956 2.67853,-0.36307 1.75674,-0.85639 -1.03782,-0.55543 -2.6304,-0.62367 -3.79437,-0.1626 -1.799769,0.71292 -2.797137,1.86203 -3.432921,3.95521 -0.49154,1.61828 -0.537845,2.24424 -0.396814,5.36429 0.216392,4.78735 0.927323,7.56673 2.39063,9.34619 0.517332,0.62911 0.669986,0.65947 3.120705,0.62083 1.41723,-0.0224 2.70305,-0.11868 2.85737,-0.21406 z m 10.1694,-2.20534 c 0.0718,-0.11609 0.008,-0.38398 -0.14164,-0.59531 -0.22182,-0.31326 -0.24457,-0.29871 -0.12313,0.0788 0.18683,0.58079 -0.29696,0.59946 -1.16464,0.0449 l -0.65418,-0.41807 0.62462,0.55037 c 0.64639,0.56954 1.23244,0.70583 1.45897,0.33929 z M 90.931649,144.5014 c 0.329107,-0.41965 0.319749,-0.429 -0.0999,-0.0999 -0.254661,0.19972 -0.46302,0.40808 -0.46302,0.46302 0,0.21777 0.217273,0.0776 0.562917,-0.36312 z m 2.082916,-2.18428 c 0.509323,-0.33875 1.223698,-0.92794 1.5875,-1.30931 0.650002,-0.68138 0.659762,-0.75509 0.563499,-4.25537 -0.06724,-2.44483 -0.171185,-3.36744 -0.331436,-2.94171 -0.12841,0.34115 -0.471281,0.68246 -0.761936,0.75846 -0.290653,0.076 -0.52846,0.2237 -0.52846,0.3282 0,0.1045 -0.590688,0.47757 -1.312638,0.82904 -1.801241,0.8769 -1.819143,1.56507 -0.04071,1.56507 1.08177,0 1.362152,0.10633 1.719792,0.65215 0.657651,1.00371 0.532027,1.85853 -0.386747,2.63163 -1.044318,0.87873 -1.506897,0.86666 -1.632781,-0.0426 -0.0554,-0.40018 -0.114334,-0.0511 -0.130966,0.77583 -0.01664,0.82689 -0.165796,1.77939 -0.331478,2.11667 l -0.301238,0.61323 0.480779,-0.55268 c 0.264428,-0.30397 0.897496,-0.82983 1.406819,-1.16858 z m 19.759905,0.48102 c -0.0845,-0.21106 -0.14716,-0.14837 -0.15985,0.15986 -0.0115,0.27891 0.051,0.43518 0.13896,0.34726 0.0879,-0.0879 0.0973,-0.31612 0.0209,-0.50712 z m -0.18074,-1.40559 c 0,-0.50933 -0.0893,-0.91195 -0.19844,-0.89471 -0.61721,0.0974 -0.92272,-0.12001 -1.24481,-0.88604 -0.3096,-0.73632 -0.30272,-0.96537 0.0497,-1.65365 0.22498,-0.43941 0.53048,-0.87722 0.67888,-0.9729 0.32138,-0.20719 1.03354,0.0214 1.30594,0.41925 0.10692,0.15613 0.1824,-0.4305 0.16775,-1.30362 -0.0147,-0.87313 -0.0806,-1.38178 -0.14651,-1.13035 -0.10591,0.4039 -0.33344,0.34959 -1.95368,-0.46635 -1.34378,-0.67672 -1.83382,-1.06401 -1.83382,-1.44934 0,-0.69031 0.10592,-0.67062 2.06099,0.38303 1.55107,0.83592 1.65255,0.85798 1.49388,0.32472 -0.33099,-1.11241 -1.40885,-2.7018 -2.54096,-3.74689 l -1.1462,-1.0581 1.17957,1.25653 c 1.2308,1.31112 1.25138,1.41323 0.20463,1.01526 -1.23253,-0.46861 -1.35425,-0.10516 -1.39977,4.17973 -0.0272,2.55774 0.053,3.95507 0.2251,3.92049 0.14703,-0.0296 0.50801,0.43344 0.80218,1.02886 0.46344,0.93807 1.4603,1.85829 2.09714,1.93593 0.10914,0.0133 0.19844,-0.39253 0.19844,-0.90185 z m 0.18074,-2.03399 c -0.0845,-0.21107 -0.14716,-0.14837 -0.15985,0.15985 -0.0115,0.27892 0.051,0.43519 0.13896,0.34727 0.0879,-0.0879 0.0973,-0.31612 0.0209,-0.50712 z m 1.92782,-0.61185 c 0,-0.14552 -0.11541,-0.086 -0.25648,0.13229 -0.14106,0.21829 -0.25647,0.51594 -0.25647,0.66146 0,0.14552 0.11541,0.086 0.25647,-0.13229 0.14107,-0.21828 0.25648,-0.51594 0.25648,-0.66146 z m -23.359069,-0.97565 c -0.08446,-0.21106 -0.147156,-0.14837 -0.159851,0.15985 -0.01148,0.27892 0.05104,0.43519 0.138965,0.34727 0.08792,-0.0879 0.09732,-0.31612 0.02088,-0.50712 z m 1.400236,-3.67243 c 2.042658,-1.08872 2.65938,-1.69393 2.621055,-2.57212 l -0.03131,-0.7173 -0.204592,0.79375 c -0.194461,0.75445 -0.214093,0.76427 -0.39643,0.19844 -0.21585,-0.66983 -0.449665,-0.72612 -1.245966,-0.29995 -0.476623,0.25508 -0.527552,0.23193 -0.373425,-0.16971 0.153863,-0.40096 0.120071,-0.41662 -0.245104,-0.11355 -0.617041,0.5121 -1.643325,2.65058 -1.778882,3.70668 -0.06434,0.50128 -0.06617,0.70583 -0.004,0.45454 0.06211,-0.25129 0.80853,-0.82763 1.658708,-1.28078 z m 24.981883,-2.42952 c -0.73025,-1.26256 -1.21838,-1.74802 -1.6075,-1.59871 -0.23849,0.0915 -0.55422,-0.0122 -0.7181,-0.23587 -0.16086,-0.21956 -0.70919,-0.61102 -1.21851,-0.8699 -1.50101,-0.76294 -3.98534,-2.32806 -3.87326,-2.44014 0.0569,-0.0569 1.1393,0.42946 2.40527,1.08088 3.3885,1.7436 7.02881,2.96115 7.48612,2.50384 0.14119,-0.14119 0.60898,-0.0833 1.1487,0.14226 1.02883,0.42987 2.79019,0.21832 4.3517,-0.52267 1.13527,-0.53872 2.76897,-2.32135 2.76897,-3.02139 0,-0.63316 0.006,-0.63251 -1.25247,-0.12885 -0.54923,0.21976 -1.53391,0.4962 -2.18817,0.6143 -0.65426,0.11811 -1.16969,0.32526 -1.14539,0.46034 0.0581,0.32313 -4.12464,0.19293 -5.9973,-0.1867 -2.59718,-0.52649 -6.52477,-2.19083 -8.30927,-3.52109 -0.45037,-0.33573 -1.07861,-0.74426 -1.39608,-0.90783 -0.53253,-0.27439 -0.56979,-0.24111 -0.48125,0.42982 0.0528,0.39997 0.10418,0.81081 0.1142,0.91296 0.01,0.10215 0.547,0.54953 1.19328,0.99418 0.84062,0.57836 1.14684,0.95491 1.07595,1.32303 -0.075,0.38962 0.29846,0.76567 1.53794,1.54847 1.25753,0.7942 1.69814,1.24181 1.90061,1.93082 0.19939,0.6785 0.3929,0.87943 0.7946,0.82505 0.29206,-0.0395 1.18503,0.16012 1.98438,0.44369 0.79934,0.28357 1.49014,0.52427 1.53511,0.5349 0.045,0.0106 -0.004,-0.12949 -0.10953,-0.31139 z m 0.82486,-2.40886 c -0.50239,-0.37058 -0.4847,-0.39421 0.39687,-0.53003 2.26781,-0.3494 3.94373,-0.4191 4.09743,-0.17041 0.0901,0.14577 0.54372,0.28168 1.00808,0.30203 0.46435,0.0204 -0.0487,0.12558 -1.1401,0.23382 -1.0914,0.10825 -2.40109,0.27683 -2.91042,0.37463 -0.63504,0.12194 -1.09127,0.0559 -1.45186,-0.21004 z m -1.91654,-0.88335 c 0.25743,-0.0671 0.61462,-0.0627 0.79375,0.01 0.17913,0.0725 -0.0315,0.12736 -0.46805,0.12197 -0.43657,-0.005 -0.58313,-0.0647 -0.3257,-0.13178 z m -1.52639,-0.34581 c -0.0899,-0.14552 0.0816,-0.26459 0.38126,-0.26459 0.29963,0 0.54478,0.11907 0.54478,0.26459 0,0.14552 -0.17156,0.26458 -0.38125,0.26458 -0.2097,0 -0.45485,-0.11906 -0.54479,-0.26458 z m -1.19062,-0.52917 c 0,-0.14552 0.11203,-0.26458 0.24897,-0.26458 0.13693,0 0.32255,0.11906 0.41249,0.26458 0.0899,0.14552 -0.0221,0.26458 -0.24897,0.26458 -0.22687,0 -0.41249,-0.11906 -0.41249,-0.26458 z m -1.05834,-0.52917 c 0,-0.14552 0.11204,-0.26458 0.24897,-0.26458 0.13693,0 0.32256,0.11906 0.41249,0.26458 0.0899,0.14552 -0.0221,0.26459 -0.24896,0.26459 -0.22687,0 -0.4125,-0.11907 -0.4125,-0.26459 z m -1.43963,-0.66987 c -0.38794,-0.29342 -0.41649,-0.38846 -0.11671,-0.38846 0.21828,0 0.62799,0.17481 0.91046,0.38846 0.38795,0.29342 0.4165,0.38846 0.11672,0.38846 -0.21828,0 -0.62799,-0.17481 -0.91047,-0.38846 z m -2.26453,-1.57908 c -0.18116,-0.21829 -0.24677,-0.39688 -0.14579,-0.39688 0.10097,0 0.36218,0.17859 0.58046,0.39688 0.21828,0.21828 0.28389,0.39687 0.14579,0.39687 -0.1381,0 -0.3993,-0.17859 -0.58046,-0.39687 z m -0.0894,6.15156 c -0.0734,-0.1819 -0.13345,-0.0331 -0.13345,0.33073 0,0.3638 0.0601,0.51263 0.13345,0.33073 0.0734,-0.1819 0.0734,-0.47956 0,-0.66146 z m -29.35105,-0.0937 c -0.08792,-0.0879 -0.316122,-0.0973 -0.507118,-0.0209 -0.211067,0.0845 -0.148372,0.14715 0.159852,0.15985 0.278915,0.0115 0.435185,-0.0511 0.347266,-0.13897 z m 46.0984,-0.23146 c 0.84704,-0.43802 4.56959,-0.92613 7.08836,-0.92943 l 1.65365,-0.002 v -1.05834 -1.05833 h -2.76982 c -2.51506,0 -2.7569,-0.0426 -2.62933,-0.46302 0.0773,-0.25466 -0.10072,-0.004 -0.39554,0.55658 -0.77786,1.47962 -1.02574,1.71862 -2.65559,2.56047 -0.80938,0.41805 -1.37639,0.76583 -1.26002,0.77283 0.11637,0.007 0.5521,-0.16337 0.96829,-0.37859 z m 2.65659,-1.98994 c 0,-0.15679 0.97014,-0.26458 2.38125,-0.26458 1.41111,0 2.38125,0.10779 2.38125,0.26458 0,0.15679 -0.97014,0.26459 -2.38125,0.26459 -1.41111,0 -2.38125,-0.1078 -2.38125,-0.26459 z m -50.842556,1.24562 c -0.628115,-0.47908 -1.411277,-1.2706 -1.74036,-1.75892 -0.329083,-0.48833 -0.598333,-0.7512 -0.598333,-0.58416 0,0.20944 -0.869579,0.30371 -2.801381,0.30371 h -2.801382 l 0.185775,1.12448 c 0.102175,0.61847 0.201937,1.13977 0.221693,1.15846 0.05951,0.0563 6.299828,0.54217 7.530968,0.58637 l 1.145048,0.0411 z m -7.101193,-0.71645 c 0,-0.16027 1.141323,-0.26458 2.894802,-0.26458 1.644464,0 2.965431,0.11428 3.058323,0.26458 0.105412,0.17056 -0.923294,0.26458 -2.894802,0.26458 -1.862493,0 -3.058323,-0.10345 -3.058323,-0.26458 z m 12.433045,1.1607 c 0.758118,-0.30334 1.16351,-0.34642 1.401447,-0.14895 0.724961,0.60166 8.137943,-2.56584 10.896251,-4.65588 1.055306,-0.79963 1.323448,-1.16213 1.357283,-1.83492 l 0.04217,-0.83843 -0.960409,0.64314 c -2.435304,1.63081 -6.240251,3.4226 -8.188317,3.85595 -2.192061,0.48764 -6.765958,0.68522 -7.006593,0.30267 -0.116372,-0.185 -0.502048,-0.33636 -0.857058,-0.33636 -0.35501,0 -1.260565,-0.23372 -2.012344,-0.51937 -1.478079,-0.56163 -1.880569,-0.51298 -1.630831,0.19711 0.540729,1.53748 2.086785,2.79055 4.182651,3.39002 1.484606,0.42463 1.581912,0.42271 2.775753,-0.055 z m 0.399247,-0.9113 c -0.582083,-0.12039 -1.713177,-0.23946 -2.513542,-0.26458 l -1.455208,-0.0457 1.058333,-0.26364 c 1.142614,-0.28464 3.409036,-0.30885 4.891451,-0.0523 0.86892,0.1504 0.89296,0.18146 0.412451,0.53281 -0.558805,0.40861 -0.820045,0.4188 -2.393485,0.0933 z m 3.643057,-0.96192 c 0.25743,-0.0671 0.614618,-0.0627 0.793749,0.01 0.179131,0.0725 -0.03149,0.12736 -0.468056,0.12197 -0.436562,-0.005 -0.583125,-0.0647 -0.325693,-0.13178 z m 1.384027,-0.34581 c -0.08994,-0.14552 0.08866,-0.26459 0.396875,-0.26459 0.308218,0 0.486812,0.11907 0.396875,0.26459 -0.08994,0.14552 -0.268531,0.26458 -0.396875,0.26458 -0.128345,0 -0.306938,-0.11906 -0.396875,-0.26458 z m 1.322916,-0.52917 c 0.08994,-0.14552 0.342114,-0.26458 0.560396,-0.26458 0.218281,0 0.323291,0.11906 0.233354,0.26458 -0.08994,0.14552 -0.342114,0.26458 -0.560395,0.26458 -0.218281,0 -0.323292,-0.11906 -0.233355,-0.26458 z m 1.322917,-0.52917 c 0.08994,-0.14552 0.216027,-0.26458 0.280199,-0.26458 0.06417,0 0.116676,0.11906 0.116676,0.26458 0,0.14552 -0.12609,0.26459 -0.280199,0.26459 -0.154109,0 -0.206613,-0.11907 -0.116676,-0.26459 z m 3.329339,-1.92695 c 0.06063,-0.0412 0.348369,-0.24953 0.639411,-0.46302 0.489482,-0.35904 0.501933,-0.35343 0.166042,0.0749 -0.199721,0.25466 -0.487455,0.46302 -0.639411,0.46302 -0.151955,0 -0.226673,-0.0337 -0.166042,-0.0749 z m -0.137694,4.77122 0.777105,-0.85989 -0.859896,0.7771 c -0.801544,0.72437 -0.981511,0.94269 -0.777105,0.94269 0.04554,0 0.432488,-0.38695 0.859896,-0.8599 z m 1.771679,-1.25677 c 0.125005,0 0.153697,0.11907 0.06376,0.26459 -0.08994,0.14552 -0.101152,0.26458 -0.02492,0.26458 0.07623,0 0.266038,-0.23812 0.421798,-0.52917 0.350137,-0.65423 -0.03276,-0.69022 -0.703889,-0.0661 -0.273862,0.25466 -0.382302,0.37372 -0.24098,0.26458 0.141325,-0.10914 0.35923,-0.19844 0.484235,-0.19844 z m 12.763756,0 c -0.52421,-0.57925 -0.92604,-0.68728 -0.92604,-0.24896 0,0.15411 0.10557,0.21495 0.2346,0.1352 0.12904,-0.0798 0.38174,0.0323 0.56157,0.24897 0.17983,0.21668 0.39036,0.39396 0.46786,0.39396 0.0775,0 -0.0746,-0.23812 -0.33799,-0.52917 z m -22.092606,-1.70067 c 2.594495,-0.56993 3.143463,-0.77488 5.659891,-2.1131 2.766481,-1.47119 4.394177,-2.52169 4.394177,-2.83597 0,-0.32575 -0.154419,-0.29802 -1.915438,0.34408 -1.331897,0.48564 -1.703787,0.52617 -2.4272,0.26459 -0.510366,-0.18456 -2.475421,-0.30893 -4.880959,-0.30893 -3.446042,0 -4.169971,0.0731 -5.020605,0.50708 -1.443618,0.73648 -2.682957,0.90098 -5.205067,0.69089 -1.646051,-0.13711 -2.466234,-0.3404 -3.102031,-0.76887 -0.851306,-0.57369 -1.154113,-1.47903 -0.560833,-1.67679 0.166921,-0.0556 0.285983,0.11303 0.264583,0.37483 -0.103953,1.27169 4.701382,2.09735 7.352832,1.26337 1.462292,-0.45995 1.614941,-0.73842 0.545759,-0.99559 -0.291042,-0.07 0.0066,-0.14292 0.661458,-0.16202 1.341077,-0.0391 2.252853,-0.42479 1.580085,-0.66833 -0.214203,-0.0775 -1.222897,-0.18586 -2.241543,-0.24071 -1.018646,-0.0549 -0.601927,-0.0745 0.926042,-0.0437 2.50823,0.0506 2.913072,-0.01 4.167187,-0.62238 0.763985,-0.37312 1.389063,-0.77267 1.389063,-0.88787 0,-0.11521 -1.614371,-0.20947 -3.58749,-0.20947 -2.324286,0 -3.529912,-0.0932 -3.423969,-0.26458 0.250078,-0.40464 7.000442,-0.30367 10.318751,0.15433 4.764487,0.65762 5.607912,0.71935 5.79056,0.42382 0.211119,-0.3416 -0.132549,-0.44328 -3.277019,-0.96958 -1.382448,-0.23139 -3.168385,-0.53211 -3.96875,-0.66827 -3.461635,-0.58891 -7.080796,-0.79028 -9.921875,-0.55206 -3.964374,0.33242 -5.852706,1.04123 -7.967758,2.99081 -2.310456,2.12971 -1.17553,3.84261 3.755871,5.66861 4.293125,1.58966 7.576861,1.99062 10.694278,1.30583 z m -0.04971,-0.86132 c 0.190997,-0.0764 0.4192,-0.067 0.507119,0.0209 0.08792,0.0879 -0.06835,0.15045 -0.347266,0.13896 -0.308225,-0.0127 -0.370919,-0.0754 -0.159853,-0.15985 z m -6.366536,-1.06899 c 0.472943,-0.0587 1.246849,-0.0587 1.719792,0 0.472942,0.0587 0.08599,0.10672 -0.859896,0.10672 -0.945886,0 -1.332839,-0.048 -0.859896,-0.10672 z m 4.564062,0.0293 c 1.973605,-0.30776 3.483621,-0.71117 4.388192,-1.17235 1.120161,-0.57109 1.697225,-0.65714 1.697225,-0.25308 0,0.14552 -0.141155,0.26458 -0.313676,0.26458 -0.172522,0 -0.583727,0.2537 -0.913787,0.56378 -0.509762,0.47889 -0.970409,0.57404 -3.05976,0.63199 -1.352808,0.0375 -2.161996,0.0218 -1.798194,-0.0349 z m -6.680729,-0.54232 c 0.181901,-0.0734 0.479557,-0.0734 0.661458,0 0.181901,0.0734 0.03307,0.13345 -0.330729,0.13345 -0.363802,0 -0.51263,-0.0601 -0.330729,-0.13345 z m 13.03073,-1.41228 c 0,-0.14552 0.304683,-0.26458 0.677074,-0.26458 0.384005,0 0.606292,0.11452 0.513551,0.26458 -0.08994,0.14552 -0.394621,0.26459 -0.677074,0.26459 -0.282454,0 -0.513551,-0.11907 -0.513551,-0.26459 z m -11.570486,-4.1521 c 0.257431,-0.0671 0.614618,-0.0627 0.79375,0.01 0.179131,0.0725 -0.03149,0.12736 -0.468056,0.12197 -0.436563,-0.005 -0.583125,-0.0647 -0.325694,-0.13177 z m 15.692882,7.49936 c 0.05557,-0.37859 0.0035,-0.37866 -0.573162,-8e-4 -0.34885,0.22858 -0.567827,0.52311 -0.486616,0.65451 0.207746,0.33614 0.984853,-0.14321 1.059778,-0.65371 z m 28.639143,0.49904 c 4.02742,-0.84719 7.66989,-2.45555 9.0051,-3.97627 0.84196,-0.95894 0.84227,-0.96041 0.37395,-1.76704 -0.93608,-1.61231 -3.13064,-3.00628 -6.00075,-3.81166 -2.15215,-0.60391 -7.79255,-0.60039 -12.06276,0.008 -5.34409,0.7608 -8.02159,1.3232 -8.15123,1.71214 -0.13214,0.39641 0.47198,0.35842 5.63769,-0.35458 3.275,-0.45203 10.33269,-0.55988 10.5788,-0.16166 0.0994,0.16079 -1.25891,0.2848 -3.6224,0.33073 l -3.7814,0.0735 1.51621,0.83166 c 1.45661,0.79897 1.62298,0.82893 4.23333,0.76238 1.49442,-0.0381 2.06229,-0.0245 1.26192,0.0302 -0.80036,0.0547 -1.72797,0.16162 -2.06134,0.23757 -0.98325,0.22401 -0.38975,0.64924 0.95248,0.68244 0.68263,0.0169 1.00303,0.088 0.71199,0.15797 -1.06918,0.25717 -0.91654,0.53564 0.54576,0.99559 1.16604,0.36676 1.93357,0.43138 3.47002,0.29215 2.71151,-0.24571 3.90024,-0.66422 4.00626,-1.41048 0.0977,-0.68743 0.4485,-0.7822 0.67835,-0.18322 0.22127,0.57663 -1.0117,1.64766 -2.18418,1.89729 -0.52798,0.11241 -2.09106,0.20022 -3.4735,0.19515 -2.07154,-0.008 -2.70943,-0.1123 -3.62748,-0.59532 -1.01817,-0.53569 -1.48565,-0.58608 -5.43719,-0.58608 -2.85032,0 -4.42469,0.10144 -4.62099,0.29774 -0.35677,0.35677 -1.62996,0.14502 -3.10072,-0.51569 -1.03025,-0.46282 -0.96988,-0.46741 4.69636,-0.35759 3.29006,0.0638 5.74001,0.01 5.74001,-0.12589 0,-0.13042 -0.80367,-0.64729 -1.78593,-1.14861 -2.13677,-1.09052 -4.29144,-1.31153 -7.66703,-0.78641 l -2.1887,0.34047 v 1.11764 c 0,1.09734 0.0324,1.13712 1.78594,2.19148 5.92526,3.56276 10.02517,4.58325 14.57143,3.62691 z m -6.6174,-0.85204 c 0.191,-0.0764 0.4192,-0.067 0.50712,0.0209 0.0879,0.0879 -0.0684,0.15045 -0.34726,0.13896 -0.30823,-0.0127 -0.37092,-0.0754 -0.15986,-0.15985 z m -2.82983,-1.75605 c -0.51931,-0.41039 -1.27451,-0.81222 -1.67822,-0.89297 -0.4037,-0.0807 -0.73401,-0.25098 -0.73401,-0.37831 0,-0.29879 0.67213,-0.29723 1.26037,0.003 1.84101,0.93938 3.86902,1.59312 6.14797,1.98182 0.3638,0.062 -0.39905,0.0948 -1.69523,0.0728 -2.15484,-0.0366 -2.43755,-0.10395 -3.30088,-0.78621 z m 7.83448,0.6875 c 0.4697,-0.0585 1.30313,-0.0594 1.85208,-0.002 0.54895,0.0573 0.16465,0.10509 -0.85399,0.10627 -1.01865,0.001 -1.46779,-0.0457 -0.99809,-0.10414 z m 3.31823,-0.52156 c 0.25743,-0.0671 0.61462,-0.0627 0.79375,0.01 0.17913,0.0725 -0.0315,0.12736 -0.46806,0.12197 -0.43656,-0.005 -0.58313,-0.0647 -0.32569,-0.13178 z m -1.46025,-5.54812 c 0.1819,-0.0734 0.47956,-0.0734 0.66146,0 0.1819,0.0734 0.0331,0.13345 -0.33073,0.13345 -0.3638,0 -0.51263,-0.0601 -0.33073,-0.13345 z m -14.58988,7.72351 c -0.0314,-0.21407 -0.15904,-0.48196 -0.28359,-0.59532 -0.12482,-0.11359 -0.12857,-0.0375 -0.008,0.1696 0.16734,0.28824 0.10022,0.33428 -0.28832,0.19779 -0.49097,-0.17248 -0.49075,-0.16578 0.007,0.21962 0.63169,0.48893 0.64366,0.4891 0.57309,0.008 z m -13.000927,-0.66028 c 0.455785,-0.50364 0.451708,-0.51664 -0.127084,-0.40518 -0.710994,0.13693 -1.035622,0.39465 -0.50433,0.40039 0.308628,0.003 0.304733,0.0494 -0.02204,0.26053 -0.218282,0.14107 -0.266499,0.25831 -0.107154,0.26054 0.159348,0.002 0.501626,-0.2301 0.760616,-0.51628 z m -21.555546,0.0685 c 0,-0.0345 -0.59258,-0.31756 -1.316845,-0.62913 -0.728854,-0.31354 -1.803863,-1.09485 -2.407555,-1.74977 -0.913655,-0.9912 -1.073942,-1.32693 -0.987409,-2.06814 0.05682,-0.48667 -0.0022,-0.81961 -0.131285,-0.73987 -0.129023,0.0797 -0.16383,0.5774 -0.07735,1.10591 0.08648,0.52852 0.173243,1.08 0.192804,1.22553 0.01956,0.14552 -0.05214,0.8222 -0.159342,1.50374 l -0.194907,1.23917 1.019589,0.11192 c 1.038666,0.11401 4.062298,0.11449 4.062298,6.4e-4 z m 33.249303,-0.198 c 0,-0.21188 -0.0992,-0.32392 -0.22048,-0.24897 -0.12127,0.075 -0.22049,-0.01 -0.22049,-0.18803 0,-0.17836 -0.0765,-0.2478 -0.16999,-0.1543 -0.0935,0.0935 -0.0194,0.35147 0.16468,0.57326 0.41301,0.49764 0.44628,0.49898 0.44628,0.0181 z m 25.74041,-1.41971 c -0.0166,-0.82629 0.0504,-1.93477 0.14871,-2.46329 0.104,-0.55877 0.0678,-1.02953 -0.0864,-1.12484 -0.15767,-0.0974 -0.20951,0.0491 -0.12785,0.36138 0.37365,1.42882 -1.05785,3.37019 -3.02474,4.10211 -0.69466,0.2585 -1.34691,0.54364 -1.44945,0.63364 -0.10255,0.09 0.88372,0.12534 2.19169,0.0785 l 2.37813,-0.0851 z m -65.682593,-0.7086 c 0.694655,-4.17433 3.216268,-10.3777 5.737884,-14.11565 0.525248,-0.77861 0.954996,-1.55811 0.954996,-1.73224 0,-0.17412 -0.474471,-0.7799 -1.054379,-1.34616 l -1.05438,-1.02958 -0.702831,0.64515 c -2.184401,2.00512 -5.257108,8.12678 -6.30005,12.5514 -0.808158,3.42856 -0.911841,3.9637 -1.059454,5.46815 -0.169778,1.73034 -0.09415,1.8021 1.819889,1.72691 l 1.306088,-0.0513 z m -2.392332,-0.3205 c -0.193334,-1.20912 -0.01906,-1.95049 0.791749,-3.36815 0.337794,-0.59062 0.615606,-1.40808 0.617359,-1.81658 0.0072,-1.6868 0.577491,-3.04995 1.726375,-4.12677 0.88914,-0.83337 1.203602,-1.36443 1.428282,-2.41207 0.158462,-0.73889 0.288558,-1.54593 0.289102,-1.79343 0.0017,-0.78299 0.956548,-2.05488 1.877456,-2.50089 0.488461,-0.23656 0.934728,-0.3835 0.991704,-0.32653 0.05698,0.057 -0.327374,0.69069 -0.854111,1.40825 -0.526737,0.71756 -0.957704,1.53498 -0.957704,1.81649 0,1.37192 -0.880664,3.3441 -2.089198,4.6786 -1.107217,1.22263 -1.289969,1.59138 -1.445807,2.91733 -0.09811,0.83479 -0.430761,2.01249 -0.739218,2.61711 -0.308456,0.60462 -0.633803,1.6874 -0.722991,2.40616 -0.198322,1.59827 -0.694019,1.87 -0.912998,0.50048 z m 73.300885,2.09415 c 0.32724,-0.20799 0.29428,-0.86955 -0.14766,-2.96427 -0.13816,-0.65485 -0.38422,-1.84364 -0.54682,-2.64175 -0.87319,-4.28629 -4.03113,-10.67097 -7.25882,-14.67579 -0.69109,-0.85749 -0.69494,-0.85655 -2.54815,0.61852 l -0.65766,0.52347 1.37773,1.93621 c 3.1209,4.38599 5.45733,9.94257 6.15422,14.63621 0.17285,1.16417 0.35913,2.2655 0.41395,2.4474 0.11058,0.3669 2.67413,0.46264 3.21321,0.12 z m -1.50942,-1.92333 c 0,-0.9693 -0.30812,-1.60673 -1.47486,-3.05115 -0.76398,-0.9458 -0.88316,-1.30033 -0.93388,-2.77812 -0.0806,-2.34777 -0.32079,-3.05332 -1.639,-4.81396 -0.63107,-0.84287 -1.35783,-2.15256 -1.61501,-2.91041 -0.72604,-2.13951 -0.93678,-2.46337 -1.90269,-2.92398 -0.49568,-0.23637 -0.90123,-0.55075 -0.90123,-0.69862 0,-0.771 2.79313,0.32145 3.28617,1.28528 0.19548,0.38215 0.43969,1.23059 0.54267,1.88543 0.18517,1.17747 1.25518,3.175 1.70074,3.175 0.12672,0 0.44679,0.32743 0.71128,0.72761 0.34288,0.51879 0.526,1.46168 0.63808,3.28547 0.15702,2.55509 0.15839,2.55917 1.26933,3.7644 0.61168,0.66359 1.13028,1.41755 1.15245,1.67547 0.0222,0.25791 0.0599,0.64752 0.0839,0.8658 0.0577,0.52552 -0.34172,1.32292 -0.66265,1.32292 -0.1404,0 -0.25527,-0.36501 -0.25527,-0.81114 z m -33.34189,0.85045 c 1.80718,-0.96921 2.41911,-2.80473 1.59684,-4.78986 -0.77369,-1.86784 -3.90055,-2.60649 -5.87309,-1.38739 -3.21798,1.98882 -1.606699,6.66711 2.29626,6.66711 0.58663,0 1.47762,-0.22044 1.97999,-0.48986 z m -8.06864,-3.21803 c 0.434784,-0.21845 0.828061,-0.59214 0.87395,-0.83043 0.09478,-0.49214 -0.659354,-0.62585 -5.151181,-0.91328 -2.617427,-0.16749 -2.739882,-0.14995 -4.365624,0.62522 -3.438224,1.63939 -3.3827,1.67387 2.560674,1.59018 4.061063,-0.0572 5.475505,-0.16687 6.082181,-0.47169 z m -21.692598,-3.69845 c 1.888251,-0.81123 4.48397,-1.32491 6.695044,-1.32491 h 2.163319 l -0.460432,-0.57235 c -0.937328,-1.16517 -4.524854,-5.14027 -5.283992,-5.85485 l -0.784716,-0.73866 -1.048484,1.40012 c -1.443387,1.92745 -2.517319,3.88708 -3.667299,6.69178 -0.536996,1.30969 -1.1722,2.61256 -1.411565,2.89528 -0.239365,0.28272 0.279166,-0.061 1.152291,-0.76385 0.873125,-0.70283 2.06375,-1.48249 2.645834,-1.73256 z m 58.668468,2.31311 c -0.30698,-0.32742 -1.02073,-1.72641 -1.5861,-3.10886 -0.56537,-1.38244 -1.31722,-3.08219 -1.67078,-3.77721 -0.79512,-1.56303 -3.17968,-4.66665 -3.59554,-4.67977 -0.43237,-0.0136 -4.40999,4.29262 -5.79534,6.27417 l -1.15611,1.65365 h 2.85923 c 4.57314,0 8.31118,1.20148 10.38053,3.3365 0.47808,0.49326 0.92617,0.89683 0.99575,0.89683 0.0696,0 -0.12466,-0.26789 -0.43164,-0.59531 z m -35.517426,-2.28279 c 0,-0.12775 -0.188619,-0.6837 -0.419153,-1.23545 -0.241175,-0.57722 -0.349162,-1.29308 -0.25432,-1.68595 0.365109,-1.5124 0.401923,-2.38646 0.130575,-3.10016 l -0.285033,-0.74969 0.744693,0.65387 c 0.427313,0.37519 0.328515,0.20435 -0.231817,-0.40085 -1.02969,-1.11214 -2.718303,-4.51937 -2.35199,-4.74577 0.272508,-0.16842 0.804304,0.45762 1.674511,1.97127 0.376476,0.65484 1.159682,1.65068 1.740458,2.21297 l 1.055963,1.02235 2.510049,0.0166 c 2.37602,0.0157 2.55743,-0.0231 3.39753,-0.72706 0.87371,-0.73208 1.27912,-1.26066 2.72018,-3.54661 0.90759,-1.43972 1.5265,-1.14529 0.69699,0.33158 -0.29991,0.53398 -0.5453,1.15297 -0.5453,1.37553 0,0.22257 -0.60799,1.04752 -1.35108,1.83324 l -1.35109,1.42857 0.82192,0.99712 c 0.91865,1.11448 1.04977,2.15321 0.42341,3.3542 -0.54066,1.03667 -0.49989,1.22926 0.24714,1.16744 0.35331,-0.0293 0.58522,-0.14566 0.51536,-0.2587 -0.28394,-0.45941 0.81331,-2.12876 1.66671,-2.53571 0.64273,-0.3065 0.97068,-0.69601 1.18318,-1.4053 0.26606,-0.88802 0.4416,-1.02967 1.8471,-1.49049 1.43405,-0.47017 1.71645,-0.70644 3.684,-3.08217 1.172,-1.41513 2.3108,-2.642 2.53066,-2.72637 0.21987,-0.0844 0.67553,-0.0277 1.01258,0.12582 0.53908,0.24562 0.75716,0.13892 1.81235,-0.88667 l 1.19953,-1.16588 -1.80433,-1.31236 c -2.2729,-1.65317 -5.82303,-3.435723 -8.73328,-4.385063 -2.5358,-0.8272 -6.90826,-1.78062 -7.13001,-1.55471 -0.0803,0.0818 -0.13216,1.58333 -0.1152,3.336703 0.0335,3.46287 0.45517,6.30854 1.19589,8.07012 l 0.47144,1.12118 -0.84908,0.79583 c -0.90627,0.84943 -1.12746,0.93948 -1.36472,0.55558 -0.43275,-0.70021 -0.96327,-5.21475 -1.11567,-9.4939 l -0.17243,-4.841813 -1.0825,0.0793 -1.08251,0.0793 -0.17714,3.968743 c -0.17749,3.97627 -0.879659,9.61512 -1.243823,9.98854 -0.106712,0.10942 -0.592492,-0.21217 -1.079514,-0.71464 l -0.885491,-0.9136 0.746276,-2.19577 c 0.643651,-1.89383 0.761923,-2.71181 0.860073,-5.94838 0.10745,-3.543193 0.08646,-3.747213 -0.376206,-3.656183 -0.269502,0.053 -1.442506,0.2386 -2.606673,0.41239 -2.868787,0.42826 -6.726158,1.68789 -9.128125,2.980813 -1.919124,1.03302 -6.13958,3.98125 -6.292984,4.39601 -0.109494,0.29603 5.239736,5.08441 6.942698,6.21478 0.797668,0.52946 1.569492,1.16713 1.715166,1.41706 0.145675,0.24992 0.268484,0.32424 0.272908,0.16516 0.0162,-0.58228 -2.655356,-4.0597 -3.9715,-5.16949 l -1.354157,-1.14184 0.73907,-0.24636 c 0.684309,-0.22809 0.84429,-0.1306 2.159157,1.31592 0.781049,0.85925 1.909457,2.21711 2.507577,3.01748 1.575173,2.1078 2.619894,3.1777 2.921119,2.99153 0.144947,-0.0896 0.188995,-0.0423 0.09789,0.10516 -0.09111,0.14741 0.711239,1.11832 1.783003,2.15755 1.403908,1.36129 2.141453,1.88951 2.638317,1.88951 0.379312,0 0.689657,-0.10452 0.689657,-0.23227 z m 4.141186,-8.43284 c -0.27539,-2.91583 -0.20619,-11.707813 0.0922,-11.707813 0.16947,0 0.26458,2.42535 0.26458,6.746883 0,3.71078 -0.0423,6.74687 -0.094,6.74687 -0.0517,0 -0.16993,-0.80367 -0.2627,-1.78594 z m 9.22447,5.71032 c 0.58439,-0.63044 1.35829,-1.5101 1.71979,-1.95479 0.36149,-0.4447 0.0421,-0.14705 -0.70982,0.66145 -0.7519,0.8085 -2.00205,2.05133 -2.77813,2.76185 -0.9688,0.88697 -1.07934,1.03891 -0.3527,0.4848 0.58208,-0.44389 1.53647,-1.32288 2.12086,-1.95331 z m 0.72176,2.51443 c -0.53757,-0.21673 -0.0936,-0.61832 0.67872,-0.61392 0.56653,0.003 0.63091,0.0589 0.31511,0.27262 -0.42419,0.28705 -0.52166,0.29812 2.32813,-0.26447 0.77115,-0.15223 1.90224,-0.29088 2.51354,-0.30809 0.95362,-0.0269 1.00547,-0.055 0.36513,-0.19844 l -0.74632,-0.16713 1.39001,-1.98438 c 0.7645,-1.09141 2.57046,-3.13929 4.01323,-4.55084 l 2.62323,-2.56647 -0.79989,-0.85588 -0.79988,-0.85588 -1.50347,1.30568 c -0.82691,0.71813 -1.95395,1.66287 -2.50454,2.09943 -0.55058,0.43657 -1.65186,1.3593 -2.44729,2.05052 -0.79542,0.69123 -1.57802,1.25677 -1.73911,1.25677 -0.38835,0 -0.83927,0.87174 -0.84638,1.63626 -0.004,0.43117 -0.51636,1.02722 -1.72924,2.01175 -1.55823,1.26486 -1.95193,1.94425 -1.09372,1.88736 0.22554,-0.0149 0.22064,-0.059 -0.0173,-0.15489 z m 2.31675,-1.0374 c 0,-0.41513 9.4918,-9.75614 9.70102,-9.54692 0.10743,0.10743 -0.33471,0.70513 -0.98253,1.32823 -0.64783,0.62309 -2.8745,2.78289 -4.94818,4.79956 -2.07367,2.01667 -3.77031,3.55527 -3.77031,3.41913 z m -21.694142,0.16808 c -0.508392,-0.42145 -0.966089,-0.72453 -1.017106,-0.67352 -0.190312,0.19031 -1.631601,-1.67757 -1.66111,-2.15277 -0.02959,-0.47654 -0.03521,-0.47672 -0.156731,-0.005 -0.07717,0.29951 0.16556,0.8001 0.626004,1.29106 0.736095,0.78488 0.738016,0.79469 0.09059,0.46245 -1.294451,-0.66428 -3.884823,-2.80951 -7.25573,-6.00888 -1.880599,-1.7849 -3.495433,-3.24527 -3.588519,-3.24527 -0.09309,0 -0.504623,0.35006 -0.914523,0.7779 l -0.745274,0.7779 3.12227,3.31165 c 1.717248,1.8214 3.42933,3.79221 3.804627,4.37957 0.626946,0.9812 0.779042,1.0694 1.872982,1.08609 0.654844,0.01 2.024062,0.17609 3.042708,0.36911 1.018646,0.19302 2.268802,0.36109 2.778125,0.3735 l 0.926042,0.0225 -0.924351,-0.76628 z m -5.854998,-1.5278 c -3.312287,-2.97317 -7.491975,-7.18877 -7.308967,-7.37178 0.156868,-0.15686 9.458108,8.48058 9.458108,8.78312 0,0.35605 -0.671225,-0.0847 -2.149141,-1.41134 z m 19.34706,-0.60211 c 0,-0.14552 -0.11906,-0.26458 -0.26459,-0.26458 -0.14552,0 -0.26458,0.11906 -0.26458,0.26458 0,0.14553 0.11906,0.26459 0.26458,0.26459 0.14553,0 0.26459,-0.11906 0.26459,-0.26459 z m -7.672919,-1.71979 c 0.341775,-0.3638 0.561877,-0.66146 0.489117,-0.66146 -0.07276,0 -0.411925,0.29766 -0.7537,0.66146 -0.341776,0.3638 -0.561878,0.66146 -0.489117,0.66146 0.07276,0 0.411924,-0.29766 0.7537,-0.66146 z m 18.785419,-2.91041 c 0.34177,-0.36381 0.56188,-0.66146 0.48911,-0.66146 -0.0728,0 -0.41192,0.29765 -0.7537,0.66146 -0.34177,0.3638 -0.56187,0.66145 -0.48911,0.66145 0.0728,0 0.41192,-0.29765 0.7537,-0.66145 z m 2.24896,-2.12472 c 0.60077,-0.52653 0.4882,-0.48665 -0.46302,0.16407 -0.69123,0.47285 -1.25678,0.90326 -1.25678,0.95647 0,0.17965 0.92091,-0.42037 1.7198,-1.12054 z m -37.061926,-6.44336 c 5.637481,-3.680003 8.799315,-4.903323 15.564526,-6.021923 l 0.992188,-0.16405 v -1.69809 -1.6981 l -1.653646,0.17106 c -5.491356,0.56803 -11.36842,2.81588 -16.602605,6.35014 -3.004856,2.028963 -3.439583,2.362193 -3.439583,2.636483 0,0.23127 1.652944,2.48902 1.831828,2.50208 0.06162,0.005 1.549902,-0.93042 3.307292,-2.0776 z m -3.15191,0.24264 c -0.232163,-0.73149 0.892972,-2.495203 1.914265,-3.000723 0.400803,-0.1984 1.420834,-0.50959 2.266735,-0.69154 0.985361,-0.21195 1.85391,-0.6082 2.417174,-1.10275 1.270244,-1.11529 2.557093,-1.58308 3.900658,-1.41795 0.91676,0.11268 1.347245,0.01 2.198333,-0.52658 2.221683,-1.39956 2.599203,-1.50032 3.926507,-1.04807 0.660048,0.2249 1.353955,0.59431 1.542015,0.82091 0.303202,0.36534 0.237636,0.3864 -0.578921,0.18593 -1.602949,-0.39354 -2.456106,-0.23614 -3.771197,0.69574 -1.075751,0.76228 -1.506942,0.90216 -2.910416,0.94415 -0.906164,0.0271 -1.773751,0.0618 -1.927969,0.0771 -0.154218,0.0153 -0.908081,0.56356 -1.67525,1.21841 -1.142001,0.97479 -1.584326,1.19062 -2.44008,1.19062 -1.507276,0 -2.702786,0.59058 -3.558444,1.757873 -0.411336,0.56114 -0.831923,1.12153 -0.934636,1.24532 -0.102714,0.12379 -0.268662,-0.033 -0.368774,-0.34842 z m 46.198086,0.0222 c 0.56496,-0.56496 1.02011,-1.13051 1.01144,-1.25677 -0.009,-0.126263 -0.94334,-0.913343 -2.07703,-1.749073 -3.9989,-2.94788 -11.38035,-5.96241 -16.29575,-6.65506 -3.55829,-0.50142 -3.30435,-0.52353 -3.33686,0.29043 -0.0163,0.40721 -0.073,1.11094 -0.12613,1.56383 l -0.0966,0.82345 2.88921,0.56518 c 5.74418,1.12366 8.9377,2.44331 13.76721,5.688983 1.38245,0.92908 2.67638,1.70431 2.8754,1.72273 0.19902,0.0184 0.8241,-0.42874 1.38906,-0.9937 z m -2.19476,-0.78982 c -0.83351,-1.029093 -1.67395,-1.502103 -3.3623,-1.892353 -1.07892,-0.24937 -1.77022,-0.64207 -2.84708,-1.61727 -1.2787,-1.158 -1.54868,-1.2882 -2.67614,-1.29052 -1.32917,-0.003 -3.62619,-0.90534 -4.26293,-1.6751 -0.24757,-0.29929 -0.7738,-0.43898 -1.65365,-0.43898 -0.70978,0 -1.29052,-0.12201 -1.29052,-0.27113 0,-0.35508 1.12304,-0.7754 1.75394,-0.65644 0.27226,0.0513 0.63258,0.10244 0.80072,0.11357 0.16813,0.0111 0.80447,0.43697 1.41409,0.94629 1.01419,0.84733 1.25296,0.92604 2.80907,0.92604 1.6155,0 1.758,0.0528 2.84531,1.05509 1.24669,1.14916 2.67132,1.85533 3.74297,1.85533 0.3757,0 1.00461,0.16862 1.39756,0.37471 0.90491,0.47459 2.78129,2.717423 2.56551,3.066553 -0.26756,0.43292 -0.58863,0.30418 -1.23655,-0.49579 z"
       id="path3724"
       inkscape:connector-curvature="0" />
  </g>
</svg>
